<svg xmlns="http://www.w3.org/2000/svg" fill="none" viewBox="0 0 269 269">
    <style>
        :root {
            --color: #28282A;
        }

        @media (prefers-color-scheme: dark) {
            :root {
                --color: #fff;
            }
        }
    </style>
    <path stroke="var(--color)" stroke-linecap="round" stroke-linejoin="round" stroke-opacity=".5" stroke-width="16" d="M117.964 215.31c-6.113 21.624-52.057 45.088-65.678 17.844-14.172-28.344 23.336-49.485 45.603-53.534"/><path stroke="var(--color)" stroke-linecap="round" stroke-linejoin="round" stroke-opacity=".5" stroke-width="16" d="M96.897 181.107c-11.757 1.221-23.396-7.887-33.21-13.384-33.125-18.549-54.685-54.659-50.065-93.932 4.882-41.501 55.518-18.67 73.362-3.47 15.449 13.161 27.121 31.042 35.689 49.321 6.968 14.864 12.802 27.459 17.349 43.373M145.226 152.853c3.751-14.752 7.423-30.08 13.136-44.364 6.295-15.738 13.576-31.9 24.041-45.355 9.375-12.053 44.911-50.806 63.447-33.954 5.717 5.196 8.087 15.693 9.667 22.801 10.149 45.673-33.391 111.671-81.541 116.486"/><path stroke="var(--color)" stroke-linecap="round" stroke-linejoin="round" stroke-opacity=".5" stroke-width="16" d="M176.454 167.475c28.332-9.938 60.753 28.193 47.09 55.517-15.859 31.72-47.585 24.537-75.096-18.092M140.022 110.968c6.541 37.121-1.875 81.623-4.709 118.469"/>
</svg>